#!OML:ASF F:\VICON\USERDATA\INSTALL\rory3\rory3.ASF
:FULLY-SPECIFIED
:DEGREES
47
root 0.4471015017462 17.842977276487947 30.472317983451777 -3.874424814605167 -1.4848554627933632 -3.6590763392251957
lfemur -13.844199049612914 -1.8594154049645975 -18.903947326739647
ltibia 20.509494961347187
lfoot -8.74318590000925 -1.9536022936517625
ltoes -8.526192546344701
rfemur -7.140756351673263 3.1169253170604665 26.28088701690068
rtibia 51.487279233023884
rfoot -2.7087950574745694 -12.343319266818208
rtoes 8.586606956945698
lowerback -1.0 1.3235256508261855 3.474430680188099
upperback 0.14196581017750884 2.30866084044121 1.0235281626322013
thorax -4.992782361310937 1.0938248427928283 -1.2733010348326856
lowerneck -16.169016405605642 -3.2280088290418067 -1.4435481290361554
upperneck 21.659936187518873 -4.297330252275923 1.3020773582819918
head 9.678666994715739 -2.0363823419729834 0.15997775856867708
lclavicle 4.3503040188166436e-16 -7.97707378183216e-16
lhumerus -33.47173605017884 5.590417972889504 80.94867282131278
lradius 25.657181287523777
lwrist 8.310553764588727
lhand -28.609664260726806 20.959046254724765
lfingers nan
lthumb -2.3332307433903896 50.20647592520661
rclavicle 3.8317233506557795e-16 -8.32896336791992e-16
rhumerus -25.383835867087377 -12.359916055463543 -80.28462347480749
rradius 30.53427361276928
rwrist 2.3841621364304952
rhand -18.043117023070455 -1.0
rfingers nan
rthumb 8.491239464146807 -8.182321212649066
48
root 0.4588052366014973 17.83162000540994 31.33667069180722 -4.001148179668627 -1.6949218141987776 -2.3487633613604175
lfemur -10.361389961933833 -2.093522101544597 -20.60431826806838
ltibia 19.412114113968883
lfoot -8.7910024088352 -2.5579515867253435
ltoes -8.295039095903016
rfemur -10.433612750834056 2.541813616601245 24.456173091885677
rtibia 56.19617153301415
rfoot -3.5020202161000196 -10.640868760801233
rtoes 8.252265330093515
lowerback -1.0 1.1135397328345216 2.2202263188506235
upperback 0.18783628998272084 1.8202434785844472 0.873200222934196
thorax -5.043963819652474 0.8873007906516333 -0.7748813705674086
lowerneck -16.25243756778565 -3.200182661814171 -1.42057838462993
upperneck 21.614036861585582 -4.247617959477019 1.4150175928230433
head 9.667657351346975 -2.0121797100477585 0.22555161009760338
lclavicle 4.35734479022842e-16 -7.959778783271279e-16
lhumerus -32.374282340085486 4.55369232190336 80.88471134168773
lradius 26.261399980416147
lwrist 8.209947981936098
lhand -28.466778375121635 20.932380229161577
lfingers nan
lthumb -2.140212258146432 50.312821074746175
rclavicle 3.789972854251374e-16 -8.349883167701075e-16
rhumerus -26.07693071036581 -13.830426044978232 -81.26509866223853
rradius 29.51102345820626
rwrist 2.2586589756297593
rhand -18.038770256163506 -1.0
rfingers nan
rthumb 8.485022887973575 -8.158838230911199
49
root 0.48662028539134616 17.826413143799797 32.66092840872954 -3.9142184929834793 -1.7124880724989089 -1.3578760504646135
lfemur -6.8433383153067835 -2.4797836873076484 -22.00616631837562
ltibia 18.6977993860417
lfoot -8.89364109076623 -2.9709763873236255
ltoes -8.222685867938807
rfemur -13.960015058493514 1.7589205909450247 22.66669776989976
rtibia 59.82093063421371
rfoot -4.397239406805191 -8.19903216034935
rtoes 7.341952188470406
lowerback -1.0 0.8021396311000872 1.223507591593862
upperback 0.21547242201476757 1.3081038712603128 0.784034225271529
thorax -5.095946442396312 0.6491947845179813 -0.25142180466949327
lowerneck -16.334981763128646 -3.154744556705149 -1.395208399829575
upperneck 21.523335700906483 -4.174657438657686 1.489472198742701
head 9.655408802528074 -1.9810091885189525 0.2758716847602428
lclavicle 4.37266722715208e-16 -7.927860652703281e-16
lhumerus -31.05360710946321 3.670124925438276 80.82252774139795
lradius 26.8684114103815
lwrist 7.85404766391576
lhand -28.335150203908814 20.854237222902142
lfingers nan
lthumb -2.013152048119208 50.23902519587574
rclavicle 3.7219483855515614e-16 -8.383969968739144e-16
rhumerus -26.86952038275947 -15.49258146706186 -82.03753687525847
rradius 28.70692520765145
rwrist 2.130687440662955
rhand -18.04168909141943 -1.0
rfingers nan
rthumb 8.467157432239901 -8.132510021781906
50
root 0.514886328187699 17.831274180596495 33.401673156890524 -3.659455245732293 -1.6081852424264507 -0.8804508421175286
lfemur -3.352448387257134 -2.913337177124874 -22.8502463737601
ltibia 18.276826584074396
lfoot -8.050201758494572 -3.644212899766248
ltoes -7.647942596880823
rfemur -17.83373391978493 1.1684586448314667 21.497062740444417
rtibia 61.99934023458802
rfoot -5.762203470286304 -5.689151869217461
rtoes 5.877025630385471
lowerback -1.0 0.43002568742442104 0.6896117203979124
upperback 0.19280342576957757 0.7686752717715664 0.8101536024617705
thorax -5.17463352769757 0.38481680466723295 0.2349511060338828
lowerneck -16.440771589211177 -3.0930537970667076 -1.3914403716827688
upperneck 21.453742608713366 -4.068329904713704 1.507865727603558
head 9.65321869497056 -1.9373208095943553 0.31513266685249847
lclavicle 4.377881707159726e-16 -7.901342655684158e-16
lhumerus -29.59813749642101 2.797424340881213 80.71727272787955
lradius 27.410167983815807
lwrist 6.938988852961965
lhand -28.33357419610372 20.537223783046667
lfingers nan
lthumb -1.9127322629686272 50.1667574233642
rclavicle 3.6421440734505416e-16 -8.425448429762503e-16
rhumerus -27.81476536666357 -17.079022749509292 -82.59403354654066
rradius 28.249415526010136
rwrist 1.8108109759768811
rhand -18.02783115563252 -1.0
rfingers nan
rthumb 8.455400953484222 -8.119387324332887
51
root 0.5460805862236717 17.83783588478099 34.35432541057316 -3.668875077097568 -1.325506057042125 0.3235149753638551
lfemur 0.18265779503006918 -3.5439315601597823 -24.511660640925818
ltibia 17.932106781409775
lfoot -6.610243904918268 -5.428666119646546
ltoes -7.141143823469617
rfemur -21.961684955187927 0.7374721528296821 19.79898256910637
rtibia 62.58110467805262
rfoot -7.220925606906093 -3.8261176062510485
rtoes 4.091966038527942
lowerback -1.0 -0.10738113576468233 -0.5519492881200954
upperback 0.17433120785972994 -0.09393354128913334 0.7665405345627461
thorax -5.2256408209741645 -0.03257730814380999 0.9458400146422463
lowerneck -16.54144740360576 -3.003612838762343 -1.434270908870361
upperneck 21.437192482774346 -3.908835948266373 1.4666020215531104
head 9.647182303911237 -1.8770473056917942 0.35244460223540386
lclavicle 4.3698830316248794e-16 -7.885190350901512e-16
lhumerus -28.150226870692737 1.8526601084320218 80.5208599505262
lradius 27.84584304296707
lwrist 5.7273526372712595
lhand -28.3160767268998 20.37734553486614
lfingers nan
lthumb -1.7847151444862903 50.30984664023292
rclavicle 3.562923838080689e-16 -8.46706894116367e-16
rhumerus -28.956366061252215 -18.389756316710343 -82.94086935286504
rradius 28.166844055228474
rwrist 1.1541920979567055
rhand -18.015404654449643 -1.0
rfingers nan
rthumb 8.446869039942634 -8.144378850016524
52
root 0.5774947171518737 17.83448999507677 35.34712531214586 -3.9414790212885995 -1.349050497221847 2.088333858318353
lfemur 4.107170862826406 -4.136014517718807 -26.567644726986348
ltibia 17.3485458040838
lfoot -5.097914766665635 -6.699940589978111
ltoes -6.895576805296958
rfemur -24.09403412620081 0.3495474687424873 18.060673049043295
rtibia 61.0443956643781
rfoot -8.109342366460302 -2.746447043003601
rtoes 2.341357375119954
lowerback -1.0 -0.36544714162885045 -1.9627532151288607
upperback 0.19987514636487957 -0.7073950389685505 0.6396342406151082
thorax -5.172826802428166 -0.3470488591732201 1.6113564584325903
lowerneck -16.598399682231445 -2.8970986046578506 -1.531023270448704
upperneck 21.503206766836815 -3.711227550102969 1.3664976028517635
head 9.654576037526038 -1.8010260564419607 0.3837317445297471
lclavicle 4.36074112908467e-16 -7.860777044771185e-16
lhumerus -26.75909871528126 0.9414170523842875 80.27073672158957
lradius 28.16802453240411
lwrist 5.043935133762472
lhand -28.39165882753195 20.272477380697662
lfingers nan
lthumb -1.7185293358119353 50.50310945297317
rclavicle 3.4552384080121737e-16 -8.52310675288142e-16
rhumerus -30.233310718451143 -19.258838594054183 -83.02975494901229
rradius 28.418421950549114
rwrist 0.2850631756731188
rhand -18.005953969753804 -1.0
rfingers nan
rthumb 8.446814366948484 -8.186458786331693
53
root 0.6232434575775612 17.833365596792696 36.628420310854665 -3.8991043018217004 -1.3577508523373898 3.3864787419616267
lfemur 7.362331773725419 -4.7199937922759245 -27.981098767436965
ltibia 16.998038251916086
lfoot -4.46080841129832 -7.819632113535164
ltoes -6.212928008998874
rfemur -24.69996285305905 0.042593373146575964 17.035573103429122
rtibia 57.67599436783743
rfoot -8.383527665693697 -2.0732854999352197
rtoes 0.9862325155521177
lowerback -1.0 -0.6536973237270933 -2.962930858896694
upperback 0.2242785962453624 -1.2449452379362262 0.6345852685670753
thorax -5.047288757138653 -0.6034926641498599 2.2068598743702643
lowerneck -16.600754971959514 -2.7797952492211335 -1.710369111848464
upperneck 21.695101869561107 -3.4957997188439127 1.201574920082774
head 9.687937092705896 -1.7201273835443671 0.39564499704272904
lclavicle 4.3188420932722645e-16 -7.862646997299539e-16
lhumerus -25.54512452226382 0.2540609953945667 80.02516157667696
lradius 28.40094062142628
lwrist 5.1529946093588626
lhand -28.445078941775318 20.46893483070123
lfingers nan
lthumb -1.728823564276531 50.73406305478477
rclavicle 3.3535834168814394e-16 -8.576429107870909e-16
rhumerus -31.52610372515668 -19.74684382726206 -82.7815524885975
rradius 28.930426236095997
rwrist -0.50218693519512
rhand -18.036303604555478 -1.0
rfingers nan
rthumb 8.442570503434347 -8.259502684518523
